<svg width="600" height="800" viewBox="0 0 600 800" fill="none" xmlns="http://www.w3.org/2000/svg"><rect width="600" height="800" rx="48" fill="url(#g)"/><circle cx="300" cy="250" r="132" fill="#FCD34D" stroke="#0F172A" stroke-width="10"/><path d="M186 432L300 360L414 432L414 564L300 636L186 564Z" fill="#EF4444" stroke="#0F172A" stroke-width="10" stroke-linejoin="round"/><path d="M186 432L414 432" stroke="#0F172A" stroke-width="10"/><line x1="120" y1="160" x2="180" y2="220" stroke="#0F172A" stroke-width="8" stroke-linecap="round"/><line x1="500" y1="120" x2="440" y2="200" stroke="#0F172A" stroke-width="8" stroke-linecap="round"/><line x1="80" y1="320" x2="160" y2="360" stroke="#0F172A" stroke-width="8" stroke-linecap="round"/><line x1="520" y1="280" x2="440" y2="340" stroke="#0F172A" stroke-width="8" stroke-linecap="round"/><circle cx="240" cy="240" r="6" fill="#0F172A"/><circle cx="360" cy="240" r="6" fill="#0F172A"/><defs><pattern id="dots" x="0" y="0" width="14" height="14" patternUnits="userSpaceOnUse"><circle cx="3" cy="3" r="2" fill="#0F172A" fill-opacity="0.35"/></pattern><linearGradient id="g" x1="64" y1="40" x2="528" y2="748" gradientUnits="userSpaceOnUse"><stop stop-color="#FEF3C7"/><stop offset="1" stop-color="#FDE68A"/></linearGradient></defs><rect x="186" y="432" width="228" height="204" fill="url(#dots)" fill-opacity="0.5"/></svg>
