<svg width="600" height="800" viewBox="0 0 600 800" fill="none" xmlns="http://www.w3.org/2000/svg"><rect width="600" height="800" rx="48" fill="url(#g)"/><polygon points="300,140 392,232 392,360 300,452 208,360 208,232" fill="#FEF3C7" stroke="#92400E" stroke-width="6" stroke-linejoin="round"/><polygon points="300,140 300,452 208,360" fill="#FDE68A"/><polygon points="300,140 392,232 300,232" fill="#FEF3C7" fill-opacity="0.85"/><polygon points="300,452 300,580 224,580 240,510 300,460" fill="#FDE68A" stroke="#92400E" stroke-width="6" stroke-linejoin="round"/><polygon points="300,452 300,580 376,580 360,510 300,460" fill="#FBBF24" stroke="#92400E" stroke-width="6" stroke-linejoin="round"/><polygon points="240,510 360,510 300,580" fill="#F59E0B" stroke="#92400E" stroke-width="6" stroke-linejoin="round"/><polygon points="224,580 376,580 360,640 240,640" fill="#FBBF24" stroke="#92400E" stroke-width="6" stroke-linejoin="round"/><defs><linearGradient id="g" x1="60" y1="42" x2="532" y2="746" gradientUnits="userSpaceOnUse"><stop stop-color="#FFFBEB"/><stop offset="1" stop-color="#FDE68A"/></linearGradient></defs></svg>
