<svg width="600" height="800" viewBox="0 0 600 800" fill="none" xmlns="http://www.w3.org/2000/svg"><rect width="600" height="800" rx="48" fill="url(#g)"/><circle cx="300" cy="248" r="124" fill="#DC2626" stroke="#7F1D1D" stroke-width="6"/><circle cx="300" cy="248" r="86" fill="#FEF3C7" stroke="#7F1D1D" stroke-width="4"/><path d="M186 580C226 460 268 388 300 388C332 388 374 460 414 580H186Z" fill="#DC2626" stroke="#7F1D1D" stroke-width="6" stroke-linejoin="round"/><path d="M232 564L240 540M256 540L264 516M300 524L300 500M336 516L344 540M368 540L376 564" stroke="#FEF3C7" stroke-width="5" stroke-linecap="round"/><path d="M120 132Q150 110 180 132Q150 154 120 132" fill="#F59E0B" stroke="#7F1D1D" stroke-width="4"/><path d="M480 660Q510 638 540 660Q510 682 480 660" fill="#F59E0B" stroke="#7F1D1D" stroke-width="4"/><path d="M90 612Q120 590 150 612" stroke="#F59E0B" stroke-width="6" stroke-linecap="round" fill="none"/><path d="M450 180Q480 158 510 180" stroke="#F59E0B" stroke-width="6" stroke-linecap="round" fill="none"/><defs><linearGradient id="g" x1="64" y1="40" x2="528" y2="748" gradientUnits="userSpaceOnUse"><stop stop-color="#FEE2E2"/><stop offset="1" stop-color="#FBBF24"/></linearGradient></defs></svg>
